<?xml version="1.0" encoding="utf-8"?>
<!-- Generator: Adobe Illustrator 18.0.0, SVG Export Plug-In . SVG Version: 6.00 Build 0)  -->
<!DOCTYPE svg PUBLIC "-//W3C//DTD SVG 1.0//EN" "http://www.w3.org/TR/2001/REC-SVG-20010904/DTD/svg10.dtd">
<svg version="1.0" id="Layer_1" xmlns="http://www.w3.org/2000/svg" xmlns:xlink="http://www.w3.org/1999/xlink" x="0px" y="0px"
	 viewBox="200.6076202 171.3308868 391.2471619 269.3372192"
	 enable-background="new 200.6076202 171.3308868 391.2471619 269.3372192" xml:space="preserve">
<path fill="#888888" d="M208.2383881,290.7611694l156.4272003-117.3203735
	c5.5953674-3.7932892,13.2063904-2.3323975,16.9996643,3.26297c1.2625732,1.8623962,1.9873657,4.0367584,2.0947266,6.2842255
	v61.8119965c170.5032043,0,202.816803,118.4219971,208.0799866,181.5803833
	c0.3292236,6.7519226-4.8773804,12.4923706-11.6292725,12.8215942c-3.6604614,0.1784973-7.208252-1.292511-9.668335-4.0087891
	c-75.5819702-88.1891785-186.7823792-67.9931946-186.7823792-67.9931946v61.8119812
	c-0.3225708,6.7522583-6.0579224,11.9645386-12.8101807,11.6419373c-2.247467-0.1073914-4.421814-0.8321838-6.2842102-2.0947266
	L208.2383881,321.2388c-8.4161682-6.2980042-10.133255-18.2261963-3.8352509-26.6423645
	C205.4919128,293.1414795,206.7834473,291.8499451,208.2383881,290.7611694z"/>
</svg>
