<?xml version="1.0" encoding="utf-8"?>
<!-- Generator: Adobe Illustrator 18.0.0, SVG Export Plug-In . SVG Version: 6.00 Build 0)  -->
<!DOCTYPE svg PUBLIC "-//W3C//DTD SVG 1.0//EN" "http://www.w3.org/TR/2001/REC-SVG-20010904/DTD/svg10.dtd">
<svg version="1.0" id="Layer_1" xmlns="http://www.w3.org/2000/svg" xmlns:xlink="http://www.w3.org/1999/xlink" x="0px" y="0px"
	 viewBox="151.1999969 58.1399994 489.5999756 489.5999756"
	 enable-background="new 151.1999969 58.1399994 489.5999756 489.5999756" xml:space="preserve">
<path fill="#1EBFB3" d="M396,547.7399902c-135.2520142,0-244.8000031-109.5480042-244.8000031-244.7999878
	S260.7479858,58.1399994,396,58.1399994s244.7999878,109.5479889,244.7999878,244.8000031S531.2519531,547.7399902,396,547.7399902z
	 M518.3999634,222.7680054c-9.7919617-8.5680084-25.0919495-8.5680084-34.8839417,0L361.1160278,335.3760071l-53.8560181-53.8560181
	c-9.1800232-9.1799927-24.480011-9.1799927-33.6600037,0c-9.1800232,9.1799927-9.1800232,24.480011,0,33.6600037L340.9199829,382.5
	c5.5080261,5.5079956,12.2400208,7.3439941,19.5840149,6.7319946c7.3439941,0.611969,14.6880188-1.2240295,20.1959839-6.1200256
	l137.6999817-127.9079742C528.1919556,246.0240021,528.1919556,231.947998,518.3999634,222.7680054z"/>
</svg>
